<svg id="Layer_3" enable-background="new 0 0 64 64" height="512" viewBox="0 0 64 64" width="512" xmlns="http://www.w3.org/2000/svg"><path d="m8 18c1.889-.63 3.37-2.111 4-4 .63 1.889 2.111 3.37 4 4-1.889.63-3.37 2.111-4 4-.63-1.889-2.111-3.37-4-4z" fill="#ff8087"/><path d="m50 46c1.889-.63 3.37-2.111 4-4 .63 1.889 2.111 3.37 4 4-1.889.63-3.37 2.111-4 4-.63-1.889-2.111-3.37-4-4z" fill="#ff8087"/><path d="m56 36h-28c-2.209 0-4-1.791-4-4v-4h36v4c0 2.209-1.791 4-4 4z" fill="#fbb03b"/><path d="m57 32v-4h-33v4c0 2.209 1.791 4 4 4h25c2.209 0 4-1.791 4-4z" fill="#fcc062"/><path d="m59 28h-34c-1.657 0-3-1.343-3-3 0-1.657 1.343-3 3-3h34c1.657 0 3 1.343 3 3 0 1.657-1.343 3-3 3z" fill="#e3aa75"/><path d="m58 18h-32c-1.105 0-2-.895-2-2v-2c0-6.627 5.373-12 12-12h12c6.627 0 12 5.373 12 12v2c0 1.105-.895 2-2 2z" fill="#fbb03b"/><path d="m57 16v-2c0-6.627-5.373-12-12-12h-9c-6.627 0-12 5.373-12 12v2c0 1.105.895 2 2 2h29c1.105 0 2-.895 2-2z" fill="#fcc062"/><path d="m25 17.354c-.622.705-1 1.631-1 2.646 0 2.209 1.791 4 4 4 1.202 0 2.267-.541 3-1.38.733.839 1.798 1.38 3 1.38s2.267-.541 3-1.38c.733.839 1.798 1.38 3 1.38.732 0 1.41-.211 2-.555.59.344 1.268.555 2 .555 1.202 0 2.267-.541 3-1.38.733.839 1.798 1.38 3 1.38s2.267-.541 3-1.38c.733.839 1.798 1.38 3 1.38 2.209 0 4-1.791 4-4 0-1.014-.378-1.94-1-2.646" fill="#cdf5a0"/><path d="m36 62h-28c-2.209 0-4-1.791-4-4v-4h36v4c0 2.209-1.791 4-4 4z" fill="#fbb03b"/><path d="m37 58v-4h-33v4c0 2.209 1.791 4 4 4h25c2.209 0 4-1.791 4-4z" fill="#fcc062"/><path d="m39 54h-34c-1.657 0-3-1.343-3-3 0-1.657 1.343-3 3-3h34c1.657 0 3 1.343 3 3 0 1.657-1.343 3-3 3z" fill="#e3aa75"/><path d="m5 43.354c-.622.705-1 1.632-1 2.646 0 2.209 1.791 4 4 4 1.202 0 2.267-.541 3-1.38.733.839 1.798 1.38 3 1.38s2.267-.541 3-1.38c.733.839 1.798 1.38 3 1.38.732 0 1.41-.211 2-.555.59.344 1.268.555 2 .555 1.202 0 2.267-.541 3-1.38.733.839 1.798 1.38 3 1.38s2.267-.541 3-1.38c.733.839 1.798 1.38 3 1.38 2.209 0 4-1.791 4-4 0-1.014-.378-1.94-1-2.646" fill="#cdf5a0"/><path d="m38 44h-32c-1.105 0-2-.895-2-2v-2c0-6.627 5.373-12 12-12h12c6.627 0 12 5.373 12 12v2c0 1.105-.895 2-2 2z" fill="#fbb03b"/><path d="m37 42v-2c0-6.627-5.373-12-12-12h-9c-6.627 0-12 5.373-12 12v2c0 1.105.895 2 2 2h29c1.105 0 2-.895 2-2z" fill="#fcc062"/><path d="m39 55h-34c-2.206 0-4-1.794-4-4s1.794-4 4-4v2c-1.103 0-2 .897-2 2s.897 2 2 2h34c1.103 0 2-.897 2-2s-.897-2-2-2v-2c2.206 0 4 1.794 4 4s-1.794 4-4 4z"/><path d="m38 45h-32c-1.654 0-3-1.346-3-3v-2c0-7.168 5.832-13 13-13h12c7.168 0 13 5.832 13 13v2c0 1.654-1.346 3-3 3zm-22-16c-6.065 0-11 4.935-11 11v2c0 .552.448 1 1 1h32c.552 0 1-.448 1-1v-2c0-6.065-4.935-11-11-11z"/><path d="m36 63h-28c-2.757 0-5-2.243-5-5v-4h2v4c0 1.654 1.346 3 3 3h28c1.654 0 3-1.346 3-3v-4h2v4c0 2.757-2.243 5-5 5z"/><path d="m36 51c-1.087 0-2.138-.363-3-1.019-1.725 1.311-4.275 1.311-6 0-1.41 1.071-3.353 1.326-5 .587-1.646.739-3.59.484-5-.587-1.725 1.311-4.275 1.311-6 0-.862.656-1.913 1.019-3 1.019-2.757 0-5-2.243-5-5 0-1.219.444-2.394 1.25-3.307l1.5 1.322c-.483.549-.75 1.254-.75 1.985 0 1.654 1.346 3 3 3 .864 0 1.662-.369 2.247-1.038.381-.434 1.125-.434 1.506 0 1.17 1.338 3.324 1.338 4.494 0 .381-.434 1.125-.434 1.506 0 .934 1.067 2.467 1.364 3.744.619.311-.182.695-.182 1.006 0 1.276.744 2.81.448 3.744-.619.381-.434 1.125-.434 1.506 0 1.17 1.338 3.324 1.338 4.494 0 .381-.434 1.125-.434 1.506 0 .585.669 1.383 1.038 2.247 1.038 1.654 0 3-1.346 3-3 0-.731-.267-1.436-.75-1.984l1.5-1.322c.806.912 1.25 2.087 1.25 3.306 0 2.757-2.243 5-5 5z"/><path d="m59 29h-34c-2.206 0-4-1.794-4-4s1.794-4 4-4v2c-1.103 0-2 .897-2 2s.897 2 2 2h34c1.103 0 2-.897 2-2s-.897-2-2-2v-2c2.206 0 4 1.794 4 4s-1.794 4-4 4z"/><path d="m58 19h-32c-1.654 0-3-1.346-3-3v-2c0-7.168 5.832-13 13-13h12c7.168 0 13 5.832 13 13v2c0 1.654-1.346 3-3 3zm-22-16c-6.065 0-11 4.935-11 11v2c0 .552.448 1 1 1h32c.552 0 1-.448 1-1v-2c0-6.065-4.935-11-11-11z"/><path d="m56 37h-17v-2h17c1.654 0 3-1.346 3-3v-4h2v4c0 2.757-2.243 5-5 5z"/><path d="m56 25c-1.087 0-2.138-.363-3-1.019-1.725 1.311-4.275 1.311-6 0-1.41 1.071-3.354 1.325-5 .587-1.646.738-3.59.484-5-.587-1.725 1.311-4.275 1.311-6 0-.862.656-1.913 1.019-3 1.019-2.757 0-5-2.243-5-5 0-1.219.444-2.394 1.25-3.307l1.5 1.322c-.483.549-.75 1.254-.75 1.985 0 1.654 1.346 3 3 3 .864 0 1.662-.369 2.247-1.038.381-.434 1.125-.434 1.506 0 1.17 1.338 3.324 1.338 4.494 0 .381-.434 1.125-.434 1.506 0 .934 1.068 2.466 1.364 3.744.619.311-.182.695-.182 1.006 0 1.277.744 2.81.449 3.744-.619.381-.434 1.125-.434 1.506 0 1.17 1.338 3.324 1.338 4.494 0 .381-.434 1.125-.434 1.506 0 .585.669 1.383 1.038 2.247 1.038 1.654 0 3-1.346 3-3 0-.731-.267-1.436-.75-1.984l1.5-1.322c.806.912 1.25 2.087 1.25 3.306 0 2.757-2.243 5-5 5z"/><path d="m12 23c-.431 0-.812-.275-.948-.684-.527-1.581-1.787-2.841-3.368-3.368-.409-.136-.684-.517-.684-.948s.275-.812.684-.948c1.581-.527 2.841-1.787 3.368-3.368.136-.409.517-.684.948-.684s.812.275.948.684c.527 1.581 1.787 2.841 3.368 3.368.409.136.684.517.684.948s-.275.812-.684.948c-1.581.527-2.841 1.787-3.368 3.368-.136.409-.517.684-.948.684zm-1.805-5c.701.492 1.312 1.104 1.805 1.805.492-.701 1.104-1.312 1.805-1.805-.701-.492-1.312-1.104-1.805-1.805-.492.701-1.104 1.313-1.805 1.805z"/><path d="m54 51c-.431 0-.812-.275-.948-.684-.527-1.581-1.787-2.841-3.368-3.368-.409-.136-.684-.517-.684-.948s.275-.812.684-.948c1.581-.527 2.841-1.787 3.368-3.368.136-.409.517-.684.948-.684s.812.275.948.684c.527 1.581 1.787 2.841 3.368 3.368.409.136.684.517.684.948s-.275.812-.684.948c-1.581.527-2.841 1.787-3.368 3.368-.136.409-.517.684-.948.684zm-1.805-5c.701.492 1.312 1.104 1.805 1.805.492-.701 1.104-1.312 1.805-1.805-.701-.492-1.312-1.104-1.805-1.805-.492.701-1.104 1.313-1.805 1.805z"/></svg>